<svg xmlns="http://www.w3.org/2000/svg" xmlns:xlink="http://www.w3.org/1999/xlink" viewBox="0 0 1060.27 475.72"><defs><style>.cls-1{fill:url(#linear-gradient);}.cls-2{fill:url(#linear-gradient-2);}.cls-3{fill:#fff;}</style><linearGradient id="linear-gradient" x1="243.11" y1="-172.92" x2="243.11" y2="324.5" gradientUnits="userSpaceOnUse"><stop offset="0.35" stop-color="#05b2d8"/><stop offset="0.9" stop-color="#076f96"/></linearGradient><linearGradient id="linear-gradient-2" x1="243.39" y1="-172.92" x2="243.39" y2="324.5" gradientUnits="userSpaceOnUse"><stop offset="0.16" stop-color="#05b2d8"/><stop offset="1" stop-color="#076f96"/></linearGradient></defs><g id="Layer_2" data-name="Layer 2"><g id="Layer_1-2" data-name="Layer 1"><path class="cls-1" d="M430.79,314.62C400.29,353,334.38,359,348.07,347.27c27.59-23.64,36-14.86,44.2-38.91s20.33-35.59,25.81-55.73-14.28-2.54-27.77,14.47-17.4,43.22-44.78,46.54c-25,3-41.17,7.54-47.3,9.45a1.54,1.54,0,0,1-1.88-2.08c1.13-2.58,3.69-6.57,9.48-10.89,15.41-11.48,17.41-12.54,26.9-34.61,32.21-74.91,28.52-68.84,26.45-74.21S326.11,217,313.3,253c-11.13,31.21-52.87,40.94-63.7,43a1.46,1.46,0,0,1-1.62-2c21.82-55,37.41-81,22.74-76.95-14.88,4.13-17.37,13.64-17.37,13.64l-27.78,55.17a4,4,0,0,1-2.31,2c-60.11,19.2-93.74,46.86-106.85,59.55a8.83,8.83,0,0,1-5.6,2.47c-13.07.78-24.88,1.9-35,3.1a8.62,8.62,0,0,1-3.67-.33C57.75,348,41.2,339,24.24,322.05c-48.3-48.3-25.61-197.31,78.81-274.75s253-54,340.64,28.16S461.3,276.29,430.79,314.62Z"/><path class="cls-2" d="M422.32,351.78c-2.75,10.67-17.39,57.67-70.66,96-60.49,43.54-106.9,24.77-135.32,18.51-27.8-6.12-44.37-21-151-40.9a1.14,1.14,0,0,1-.28-2.15c18.69-8.76,52-21.61,86.69-21.61,52.69,0,53.19-10,86.82-10,32.58,0,91.59-4.59,110.54,1.71a3.91,3.91,0,0,0,3.4-.49c6.83-4.54,32.5-21.44,40.94-24.48,7.34-2.65,15.9-11.68,23.92-19.42l3.24.34A2,2,0,0,1,422.32,351.78Z"/><path class="cls-3" d="M568.81,391.74a16.9,16.9,0,0,1,6.05,9.05h-5a12.28,12.28,0,0,0-4.53-5.81,13.18,13.18,0,0,0-7.67-2.17,11.79,11.79,0,0,0-10.92,6.76,16.7,16.7,0,0,0-1.64,7.64,16.45,16.45,0,0,0,1.64,7.56,11.8,11.8,0,0,0,10.92,6.72,13.18,13.18,0,0,0,7.67-2.16,12.28,12.28,0,0,0,4.53-5.81h5a16.84,16.84,0,0,1-6.05,9,17.88,17.88,0,0,1-11.11,3.31,17.41,17.41,0,0,1-9.12-2.37,16.39,16.39,0,0,1-6.18-6.62,20.57,20.57,0,0,1-2.22-9.67,20.85,20.85,0,0,1,2.22-9.75,16.28,16.28,0,0,1,6.18-6.65,17.42,17.42,0,0,1,9.12-2.38A18,18,0,0,1,568.81,391.74Z"/><path class="cls-3" d="M588.1,421.86h13v3.7H583.36V388.8h4.74Z"/><path class="cls-3" d="M612.87,392.66v12.56h14v3.65h-14V421.7h15.54v3.86H608.13V388.8h20.28v3.86Z"/><path class="cls-3" d="M658.19,417.06H642l-3.08,8.5h-5.11l13.61-36.08h5.37l13.56,36.08h-5.11Zm-1.36-3.7L650.1,394.8l-6.72,18.56Z"/><path class="cls-3" d="M701.88,425.56h-4.74l-19.09-29v29h-4.74V388.8h4.74l19.09,29.1V388.8h4.74Z"/><path class="cls-3" d="M716.38,388.8v36.76h-4.75V388.8Z"/><path class="cls-3" d="M754.7,425.56H750l-19.09-29v29h-4.74V388.8h4.74L750,417.9V388.8h4.74Z"/><path class="cls-3" d="M791.91,391.61a15.54,15.54,0,0,1,5.87,8.66h-5a11.3,11.3,0,0,0-4.35-5.37,12.72,12.72,0,0,0-7.23-2,13,13,0,0,0-6.72,1.74,12.28,12.28,0,0,0-4.67,5,18.15,18.15,0,0,0,0,15.36,12.14,12.14,0,0,0,4.77,5,13.89,13.89,0,0,0,7,1.74,13.22,13.22,0,0,0,6.21-1.46,12,12,0,0,0,4.61-4.25,14.54,14.54,0,0,0,2.17-6.54H780.15V405.9h18.46v4.38a18.32,18.32,0,0,1-2.71,7.93,16.31,16.31,0,0,1-6,5.63,17.73,17.73,0,0,1-8.66,2.09,18.2,18.2,0,0,1-9.38-2.38,16.5,16.5,0,0,1-6.34-6.62,22,22,0,0,1,0-19.45,16.71,16.71,0,0,1,6.34-6.65,18,18,0,0,1,9.33-2.4A17.76,17.76,0,0,1,791.91,391.61Z"/><path class="cls-3" d="M844.18,420.87a9.44,9.44,0,0,1-3.8,3.65,12.94,12.94,0,0,1-6.31,1.41,15.2,15.2,0,0,1-6.49-1.33A11.62,11.62,0,0,1,823,421a10.43,10.43,0,0,1-2-5.3h5.06a7.17,7.17,0,0,0,1.07,3.05,7.1,7.1,0,0,0,2.61,2.45,8.07,8.07,0,0,0,4.09,1,6.5,6.5,0,0,0,4.8-1.67,5.8,5.8,0,0,0,1.67-4.28,5.48,5.48,0,0,0-1.18-3.65,8.35,8.35,0,0,0-2.89-2.21,40,40,0,0,0-4.69-1.75A46.54,46.54,0,0,1,826,406.4a9.62,9.62,0,0,1-3.6-3,8.92,8.92,0,0,1-1.48-5.37,9.27,9.27,0,0,1,1.38-5.06,9.05,9.05,0,0,1,4-3.39,14.31,14.31,0,0,1,6.08-1.2q5.42,0,8.6,2.63a10.06,10.06,0,0,1,3.7,6.7h-5.11a6.87,6.87,0,0,0-2.24-3.86,7.07,7.07,0,0,0-4.95-1.66,6.79,6.79,0,0,0-4.59,1.48,6,6,0,0,0-.6,7.67,7.86,7.86,0,0,0,2.79,2.08,43.88,43.88,0,0,0,4.59,1.7,45.72,45.72,0,0,1,5.71,2.19,9.67,9.67,0,0,1,3.67,3.15,9.44,9.44,0,0,1,1.52,5.61A9.75,9.75,0,0,1,844.18,420.87Z"/><path class="cls-3" d="M858.68,392.66v12.56h14v3.65h-14V421.7h15.54v3.86H853.93V388.8h20.29v3.86Z"/><path class="cls-3" d="M902,425.56l-9.6-15H887.2v15h-4.74V388.8h12.1q6.26,0,9.38,3a10.49,10.49,0,0,1,3.13,7.95,10.26,10.26,0,0,1-2.5,7.22,11.67,11.67,0,0,1-7.25,3.42l10,15.17ZM887.2,407.1h6.94q8.08,0,8.08-7.09t-8.08-7.09H887.2Z"/><path class="cls-3" d="M917.39,388.8l11.22,31.49L940,388.8h5.17l-13.51,36.76h-6L912.18,388.8Z"/><path class="cls-3" d="M956.82,388.8v36.76h-4.75V388.8Z"/><path class="cls-3" d="M993.94,391.74a16.9,16.9,0,0,1,6,9.05h-5a12.24,12.24,0,0,0-4.54-5.81,13.18,13.18,0,0,0-7.67-2.17,11.79,11.79,0,0,0-10.92,6.76,16.83,16.83,0,0,0-1.64,7.64,16.57,16.57,0,0,0,1.64,7.56,12.26,12.26,0,0,0,4.48,5,12.12,12.12,0,0,0,6.44,1.74,13.18,13.18,0,0,0,7.67-2.16,12.24,12.24,0,0,0,4.54-5.81h5a16.84,16.84,0,0,1-6,9,17.87,17.87,0,0,1-11.1,3.31,17.45,17.45,0,0,1-9.13-2.37,16.39,16.39,0,0,1-6.18-6.62,20.57,20.57,0,0,1-2.21-9.67,20.84,20.84,0,0,1,2.21-9.75,16.28,16.28,0,0,1,6.18-6.65,17.46,17.46,0,0,1,9.13-2.38A17.94,17.94,0,0,1,993.94,391.74Z"/><path class="cls-3" d="M1013.24,392.66v12.56h14v3.65h-14V421.7h15.54v3.86h-20.29V388.8h20.29v3.86Z"/><path class="cls-3" d="M1059,420.87a9.46,9.46,0,0,1-3.81,3.65,12.89,12.89,0,0,1-6.31,1.41,15.27,15.27,0,0,1-6.49-1.33,11.69,11.69,0,0,1-4.54-3.65,10.33,10.33,0,0,1-1.95-5.3H1041a7.19,7.19,0,0,0,3.67,5.5,8.1,8.1,0,0,0,4.1,1,6.49,6.49,0,0,0,4.79-1.67,5.76,5.76,0,0,0,1.67-4.28,5.53,5.53,0,0,0-1.17-3.65,8.45,8.45,0,0,0-2.89-2.21,40.29,40.29,0,0,0-4.7-1.75,46.3,46.3,0,0,1-5.6-2.16,9.62,9.62,0,0,1-3.6-3,8.92,8.92,0,0,1-1.49-5.37,9.27,9.27,0,0,1,1.38-5.06,9.14,9.14,0,0,1,4-3.39,14.26,14.26,0,0,1,6.07-1.2q5.43,0,8.61,2.63a10.1,10.1,0,0,1,3.7,6.7h-5.11a7,7,0,0,0-2.24-3.86,7.08,7.08,0,0,0-5-1.66,6.79,6.79,0,0,0-4.59,1.48,6,6,0,0,0-.6,7.67,7.86,7.86,0,0,0,2.79,2.08,45.68,45.68,0,0,0,4.59,1.7,44.52,44.52,0,0,1,5.71,2.19,9.7,9.7,0,0,1,3.68,3.15,9.43,9.43,0,0,1,1.51,5.61A9.84,9.84,0,0,1,1059,420.87Z"/><path class="cls-3" d="M772.32,148.07c0,39.54-20.65,70.44-48,87.73a110.42,110.42,0,0,1-60.35,18.25c-29.94,0-46-10.73-46-31.06q0-11,4.8-30.74c3-13.12,12.65-49.79,28.5-110-26.9,2.08-47.87,11.85-60.36,26.09s-18.73,31.86-18.73,52.19c-.48,27.22,12,50.44,11.53,54.28,0,4.48-4.64,7.2-10.41,7.2-6.88,0-14.25-5.6-21.77-17s-11.37-24.49-11.37-39.54c0-26.26,12.17-50,33.62-66.92s54.92-27.38,94.14-27.38C737.26,71.22,772.32,98.12,772.32,148.07Zm-40,51.23c7-13.93,10.56-29.46,10.56-46.75,0-20-5.6-36.18-17-48.51s-27.69-19.53-49-21.61Q654.58,169.12,650,189.05c-3.2,13.45-4.8,23.7-4.8,30.9,0,14.57,9,22.57,24.81,22.57C694.84,242.52,718.21,227.31,732.3,199.3Z"/><path class="cls-3" d="M773.2,202.5c1.28-5.12,3.36-12.65,6.4-22.57s5.45-18.41,7.21-25.46l.8-3.52c2.08-8.17,5.6-10.89,16.33-10.89,5.6,0,8.49,1.6,8.49,5,0,2.4-3,13.28-9.13,32.49-6.24,19.22-9.29,31.22-9.29,36q0,9.6,7.21,13.44c-.48,5.29-3.52,7.85-9.13,7.85-12.17,0-20.81-7.2-20.81-18.89A58.74,58.74,0,0,1,773.2,202.5ZM806,130c-7.52,0-11.69-3.37-11.69-9,0-5,1.93-9.28,5.93-13.13a19.69,19.69,0,0,1,14.25-5.76q9.12,0,9.12,7.2c0,2.09-1,5.45-2.88,10.41-2.08,5-3.2,7.84-3.36,8.81A62.2,62.2,0,0,1,806,130Z"/><path class="cls-3" d="M876.27,221.71c-4.81,22.41-8,38.26-9.61,47.39s-2.4,16.17-2.24,21.13c-2.56,1.28-6.08,1.92-10.73,1.92-7.84,0-13-3.84-13-11.68,0-3.05.48-5.61,1.92-12.49l2.4-10.09q1.2-5,3.84-15.85c1.76-7.2,3.52-14.24,5.12-21.13-14.08-1.6-25.45-4.8-34.26-9.6-8.8-4.65-13.12-9.93-13.12-15.69,0-6.57,3.36-11.05,10.24-13.61,12.33,13.77,25.62,22.89,39.87,27.53l12-56c2.41-10.25,7.53-13.29,16.49-13.29,4.65,0,6.89,1.76,6.89,5.13,0,3.2-4.16,13.92-9.29,27.21-2.56,6.73-4.48,12-5.6,16l1,.32c12.17-34.42,24.65-49.47,43.07-49.47,13,0,21.29,8.49,21.29,23.86C942.55,192.73,921.42,220,876.27,221.71Zm17.29-51.07q-9.85,16.81-15.37,42.27c13.29-.16,23.37-4.49,30.42-13.29,6.88-8.81,10.4-19.69,10.4-32.82,0-8.49-2.4-12.81-7.2-12.81C906.21,154,900.12,159.59,893.56,170.64Z"/><path class="cls-3" d="M659.39,315.41a8,8,0,0,1-.64,3l-.8,2.72c-3.84,11.37-10.73,21.3-20.82,29.94-10.08,8.81-21.45,13.13-33.93,13.13-10.09,0-16.17-4.48-16.17-13.45a45.93,45.93,0,0,1,1.76-11.21L601.27,293c-1.76-.16-4.64-.16-8.32-.16a11.1,11.1,0,0,1-.48-3.21c0-4.16,2.24-6.24,6.56-6.24h4.8l2.89-10.57c2.56-8.8,5.92-11.52,15.69-11.52,5,0,7.36,1.6,7.36,5a22.46,22.46,0,0,1-.64,4l-3.68,13.13a85.76,85.76,0,0,0,13.45-1,18.37,18.37,0,0,1,.64,5c0,4.65-2.41,6.89-7.37,6.89-4.32,0-7.52,0-9.6-.16L611.2,334.78c-1.44,5.29-2.08,9-2.08,11.05,0,3,1.76,4.64,5.12,4.64,6.57,0,13.61-3.2,21.13-9.44a54.44,54.44,0,0,0,16.33-22.74l2.09-5.76c2.56,0,4.16.32,5,1.12A2.19,2.19,0,0,1,659.39,315.41Z"/><path class="cls-3" d="M764.57,315.41a11.14,11.14,0,0,1-.64,3l-1,2.72c-3.36,9.61-9.77,17.61-19.37,23.86q-14.65,9.36-35.55,9.6a52.76,52.76,0,0,1-32,10.73c-21.13,0-33.94-10.73-33.94-27.86q0-19.44,14.41-35.54c9.45-10.56,20.18-17.61,31.86-21.29a20.81,20.81,0,0,1,5.13-1c2.72,0,5,1.92,5,3.84,0,1.12-1.28,2.4-4,4-7.53,4.65-14.09,11.37-19.7,20.5s-8.64,17.93-8.64,26.57c0,12.65,5.92,18.89,15.53,18.89a18.51,18.51,0,0,0,9.12-2.4c-8.16-4.32-12.32-11.53-12.32-21.61,0-9.61,3.84-19.05,11.36-28.34,7.53-9.12,15.69-13.77,24.34-13.77,10.72,0,17.93,7.05,17.93,20.34a55.82,55.82,0,0,1-13.61,36.82c18.73-1.76,32.66-11.37,38.26-26.26l2.24-5.76c2.41,0,4,.32,4.81,1.12A2.57,2.57,0,0,1,764.57,315.41Zm-67.88-7a39,39,0,0,0-4,17.29c0,8.16,2.56,13.76,7.84,16.65q9.12-12.26,9.13-30.74c0-7.53-1.61-11.37-5-11.37C702,300.2,699.41,302.92,696.69,308.37Z"/><path class="cls-3" d="M860.62,312.53c2.56,0,4.16.32,5,1.12a2.19,2.19,0,0,1,.64,1.76,6.49,6.49,0,0,1-.64,3l-.8,2.72c-3.68,10.89-10.24,21-20,30.1S825.08,365,814.83,365c-10.08,0-14.89-5.12-14.89-13a28.74,28.74,0,0,1,1.45-8.64c.8-3,2.72-8.33,5.44-16.17l-1-.48c-9.29,24.81-22.42,37.14-39.23,37.14-11.36,0-19.37-6.24-19.37-17.29a51.79,51.79,0,0,1,1.28-10.89c.8-3.68,2.57-9.6,5.13-17.93,2.56-8.16,4.8-16,6.72-23.37,2.4-9.45,6.24-11.69,15.85-11.69,5.6,0,8.49,1.76,8.49,5.28,0,1.44-.81,4.81-2.57,10.25l-1.12,3.36Q770,334.06,770,342c0,5,2.08,7.52,6.4,7.52,10.73,0,23.53-16.65,33.14-52.35l1.12-4.16c2.4-8.33,5.12-10.41,15.85-10.41,6.4,0,8.33,3,7.52,7.36l-.31,1.77c-.17,1.12-2.73,9.6-7.37,25.77-4.8,16.17-7.2,25.94-7.2,29.14,0,3,1.6,4.64,4.8,4.64q7.68,0,18.73-10.08a62.92,62.92,0,0,0,15.85-22.9Z"/><path class="cls-3" d="M917.93,297.32c0,5.44-2.24,10.73-6.72,16s-8.65,7.84-12.33,7.84c-3.2,0-6.56-2.08-6.56-4.64,0-.8,1-3.2,2.72-7.36s2.72-7.69,2.72-10.57c0-3-1.28-4.48-3.84-4.48-4.81,0-9.77,4.32-14.89,13.13-5.28,8.8-7.85,17.29-7.85,25.77,0,11.85,6.41,17.77,19.37,17.77,9.77,0,19.38-3.2,28.66-9.44,9.13-6.25,15.53-13.93,18.89-23.06l2.25-5.76c2.56,0,4.16.32,5,1.12a2.19,2.19,0,0,1,.64,1.76,6.49,6.49,0,0,1-.64,3l-.64,2.08c-4,11.85-11.85,22.1-23.22,30.9a62.41,62.41,0,0,1-39.22,13.29c-21.61,0-34.1-9.13-34.1-27.54,0-8,2.56-16.33,7.68-24.81a67.08,67.08,0,0,1,19.86-21c8.16-5.61,16.17-8.33,24.17-8.33C912,283.07,917.93,288.51,917.93,297.32Z"/><path class="cls-3" d="M1014.47,299.4c0,5-1.92,13.13-5.61,24.5s-5.6,18.57-5.6,21.93c0,3,1.6,4.64,4.64,4.64q7.22,0,17.77-9.6A57.88,57.88,0,0,0,1041,318.29l2.08-5.76c2.57,0,4.17.32,5,1.12a2.57,2.57,0,0,1,.8,1.76,11.14,11.14,0,0,1-.64,3l-1,2.72c-3.68,11.21-10.41,21.14-20,29.94-9.77,8.81-20,13.13-30.74,13.13-9.77,0-16.33-4.48-16.33-13.45,0-4.32,1.76-12.33,5.44-23.69s5.44-19.05,5.44-23.38c0-4.64-2.08-7-6.24-7-5.92,0-12,5.28-18.41,15.69-6.56,10.56-11.53,24.33-15.21,41.46l-.48,2.24-1.28,6.25a42.3,42.3,0,0,1-9.93,1.44c-7.84,0-11.68-3-11.68-9.13,0-3.2.64-5.92,3.2-15.37,1.28-4.64,2.88-10.4,4.64-17s4.16-16.81,7.36-30.73,6.73-29.46,10.41-46.91l1.6-7.05c1.44-7.68,5-10.72,15.69-10.72,6.57,0,8.81,2.24,8.81,6.72,0,3.84-1.76,11.05-5.61,23.86-2.08,6.56-4,13-6.08,19.21s-5,14.89-8.49,25.61-6.72,20.49-9.44,29l1,.32c12.17-34.42,25.29-49.47,44.51-49.47C1006.78,282.11,1014.47,288.35,1014.47,299.4Z"/></g></g></svg>