<svg xmlns="http://www.w3.org/2000/svg" viewBox="0 0 1047.49 469.98"><defs><style>.cls-1{fill:#fff;}</style></defs><g id="Layer_2" data-name="Layer 2"><g id="Layer_1-2" data-name="Layer 1"><path class="cls-1" d="M425.59,310.83c-30.13,37.86-95.24,43.86-81.71,32.26,27.25-23.36,35.55-14.69,43.66-38.44s20.09-35.16,25.5-55.07-14.11-2.5-27.43,14.3-17.2,42.7-44.24,46c-24.68,3-40.68,7.45-46.74,9.34a1.53,1.53,0,0,1-1.86-2.06c1.12-2.55,3.65-6.49,9.37-10.76,15.22-11.34,17.2-12.38,26.58-34.19,31.82-74,28.18-68,26.13-73.32s-32.67,15.52-45.33,51.06c-11,30.84-52.23,40.44-62.93,42.45a1.44,1.44,0,0,1-1.6-2c21.56-54.32,37-80.06,22.47-76-14.71,4.08-17.16,13.48-17.16,13.48l-27.45,54.51a3.91,3.91,0,0,1-2.28,1.94c-59.38,19-92.61,46.29-105.57,58.84a8.68,8.68,0,0,1-5.52,2.43c-12.92.78-24.58,1.88-34.63,3.07a8.74,8.74,0,0,1-3.63-.33C57.06,343.83,40.7,334.92,24,318.17-23.77,270.45-1.36,123.23,101.81,46.73s250-53.31,336.54,27.82S455.74,273,425.59,310.83Z"/><path class="cls-1" d="M417.23,347.54c-2.71,10.55-17.18,57-69.81,94.85-59.76,43-105.61,24.47-133.69,18.29-27.47-6.05-43.84-20.72-149.19-40.41a1.12,1.12,0,0,1-.27-2.12c18.46-8.66,51.36-21.35,85.64-21.35,52.05,0,52.55-9.86,85.78-9.86,32.19,0,90.48-4.53,109.2,1.69a3.85,3.85,0,0,0,3.36-.48C355,383.66,380.36,367,388.7,364c7.25-2.62,15.71-11.54,23.63-19.18l3.2.33A2,2,0,0,1,417.23,347.54Z"/><path class="cls-1" d="M562,387a16.66,16.66,0,0,1,6,8.94H563a12,12,0,0,0-4.48-5.74,12.94,12.94,0,0,0-7.57-2.14,11.63,11.63,0,0,0-10.79,6.67,16.6,16.6,0,0,0-1.63,7.55,16.31,16.31,0,0,0,1.63,7.47,11.67,11.67,0,0,0,10.79,6.64,12.94,12.94,0,0,0,7.57-2.14,12,12,0,0,0,4.48-5.74h4.95a16.66,16.66,0,0,1-6,8.94,17.67,17.67,0,0,1-11,3.27,17.21,17.21,0,0,1-9-2.34,16.23,16.23,0,0,1-6.11-6.55,20.31,20.31,0,0,1-2.19-9.55,20.65,20.65,0,0,1,2.19-9.64A16.13,16.13,0,0,1,542,386.1a17.12,17.12,0,0,1,9-2.35A17.67,17.67,0,0,1,562,387Z"/><path class="cls-1" d="M581,416.77h12.88v3.66H576.33V384.11H581Z"/><path class="cls-1" d="M605.48,387.92v12.42h13.81V404H605.48v12.67h15.36v3.81h-20V384.11h20v3.81Z"/><path class="cls-1" d="M650.25,412h-16l-3,8.4h-5l13.45-35.65H645l13.39,35.65h-5.05Zm-1.34-3.65L642.27,390l-6.65,18.34Z"/><path class="cls-1" d="M693.42,420.43h-4.69l-18.85-28.69v28.69h-4.69V384.11h4.69l18.85,28.75V384.11h4.69Z"/><path class="cls-1" d="M707.74,384.11v36.32h-4.69V384.11Z"/><path class="cls-1" d="M745.61,420.43h-4.69l-18.86-28.69v28.69h-4.68V384.11h4.68l18.86,28.75V384.11h4.69Z"/><path class="cls-1" d="M782.36,386.89a15.33,15.33,0,0,1,5.8,8.56h-4.95a11.06,11.06,0,0,0-4.3-5.31,12.56,12.56,0,0,0-7.13-2,12.88,12.88,0,0,0-6.65,1.73,12,12,0,0,0-4.61,4.92,15.92,15.92,0,0,0-1.67,7.52,16.11,16.11,0,0,0,1.7,7.65,12,12,0,0,0,4.71,4.94,13.71,13.71,0,0,0,6.93,1.73,13.13,13.13,0,0,0,6.13-1.44,11.91,11.91,0,0,0,4.56-4.2,14.35,14.35,0,0,0,2.14-6.47H770.75V401H789v4.33a18.17,18.17,0,0,1-2.67,7.83,16.09,16.09,0,0,1-6,5.56,17.45,17.45,0,0,1-8.55,2.06,18.1,18.1,0,0,1-9.28-2.34,16.34,16.34,0,0,1-6.25-6.54,21.65,21.65,0,0,1,0-19.22,16.48,16.48,0,0,1,6.25-6.57,17.84,17.84,0,0,1,9.23-2.37A17.55,17.55,0,0,1,782.36,386.89Z"/><path class="cls-1" d="M834,415.79a9.37,9.37,0,0,1-3.76,3.61,12.77,12.77,0,0,1-6.24,1.39,15,15,0,0,1-6.41-1.31,11.4,11.4,0,0,1-4.48-3.61,10.15,10.15,0,0,1-1.93-5.23h5a7.21,7.21,0,0,0,1.06,3,7,7,0,0,0,2.58,2.42,8.08,8.08,0,0,0,4,.95,6.42,6.42,0,0,0,4.74-1.65,5.7,5.7,0,0,0,1.65-4.22,5.47,5.47,0,0,0-1.16-3.61,8.41,8.41,0,0,0-2.86-2.19,39.43,39.43,0,0,0-4.64-1.72,47.39,47.39,0,0,1-5.53-2.14,9.49,9.49,0,0,1-3.56-3,8.79,8.79,0,0,1-1.47-5.31,9.17,9.17,0,0,1,1.37-5,9,9,0,0,1,3.91-3.35,14.12,14.12,0,0,1,6-1.18q5.37,0,8.5,2.6a9.91,9.91,0,0,1,3.66,6.62h-5.05a6.81,6.81,0,0,0-2.21-3.81,7,7,0,0,0-4.9-1.65,6.69,6.69,0,0,0-4.53,1.47,5.87,5.87,0,0,0-.59,7.57,7.66,7.66,0,0,0,2.75,2.06,43.82,43.82,0,0,0,4.54,1.68,45.26,45.26,0,0,1,5.64,2.16,9.64,9.64,0,0,1,3.63,3.12,9.26,9.26,0,0,1,1.5,5.53A9.69,9.69,0,0,1,834,415.79Z"/><path class="cls-1" d="M848.33,387.92v12.42h13.81V404H848.33v12.67h15.35v3.81h-20V384.11h20v3.81Z"/><path class="cls-1" d="M891.09,420.43l-9.48-14.84h-5.1v14.84h-4.69V384.11h11.95q6.18,0,9.28,3a10.4,10.4,0,0,1,3.09,7.86,10.19,10.19,0,0,1-2.48,7.14,11.54,11.54,0,0,1-7.16,3.37l9.89,15Zm-14.58-18.24h6.85q8,0,8-7t-8-7h-6.85Z"/><path class="cls-1" d="M906.34,384.11l11.07,31.12,11.23-31.12h5.1L920.4,420.43h-5.92l-13.29-36.32Z"/><path class="cls-1" d="M945.28,384.11v36.32h-4.69V384.11Z"/><path class="cls-1" d="M982,387a16.66,16.66,0,0,1,6,8.94h-5a12,12,0,0,0-4.48-5.74,12.94,12.94,0,0,0-7.57-2.14,11.63,11.63,0,0,0-10.79,6.67,16.47,16.47,0,0,0-1.63,7.55,16.19,16.19,0,0,0,1.63,7.47,11.67,11.67,0,0,0,10.79,6.64,12.94,12.94,0,0,0,7.57-2.14,12,12,0,0,0,4.48-5.74h5a16.66,16.66,0,0,1-6,8.94,17.67,17.67,0,0,1-11,3.27,17.19,17.19,0,0,1-9-2.34,16.17,16.17,0,0,1-6.11-6.55,20.31,20.31,0,0,1-2.19-9.55,20.65,20.65,0,0,1,2.19-9.64A16.07,16.07,0,0,1,962,386.1a17.1,17.1,0,0,1,9-2.35A17.67,17.67,0,0,1,982,387Z"/><path class="cls-1" d="M1001,387.92v12.42h13.81V404H1001v12.67h15.36v3.81h-20V384.11h20v3.81Z"/><path class="cls-1" d="M1046.25,415.79a9.24,9.24,0,0,1-3.76,3.61,12.73,12.73,0,0,1-6.23,1.39,15,15,0,0,1-6.41-1.31,11.44,11.44,0,0,1-4.49-3.61,10.24,10.24,0,0,1-1.93-5.23h5a7,7,0,0,0,1.06,3,7.06,7.06,0,0,0,2.57,2.42,8.14,8.14,0,0,0,4,.95,6.38,6.38,0,0,0,4.73-1.65,5.7,5.7,0,0,0,1.65-4.22,5.42,5.42,0,0,0-1.16-3.61,8.37,8.37,0,0,0-2.85-2.19,40.13,40.13,0,0,0-4.64-1.72,47.64,47.64,0,0,1-5.54-2.14,9.46,9.46,0,0,1-3.55-3,8.79,8.79,0,0,1-1.47-5.31,9.16,9.16,0,0,1,1.36-5,9,9,0,0,1,3.92-3.35,14.12,14.12,0,0,1,6-1.18q5.36,0,8.5,2.6a10,10,0,0,1,3.66,6.62h-5a6.83,6.83,0,0,0-2.22-3.81,7,7,0,0,0-4.89-1.65,6.67,6.67,0,0,0-4.53,1.47,5.89,5.89,0,0,0-.6,7.57,7.7,7.7,0,0,0,2.76,2.06,44.4,44.4,0,0,0,4.53,1.68,44.06,44.06,0,0,1,5.64,2.16,9.59,9.59,0,0,1,3.64,3.12,9.33,9.33,0,0,1,1.49,5.53A9.58,9.58,0,0,1,1046.25,415.79Z"/><path class="cls-1" d="M763,146.28c0,39.07-20.4,69.6-47.45,86.68a109.1,109.1,0,0,1-59.63,18c-29.57,0-45.39-10.6-45.39-30.69q0-10.91,4.75-30.36c3-13,12.49-49.19,28.15-108.66-26.57,2-47.29,11.7-59.63,25.78s-18.5,31.47-18.5,51.56c-.48,26.89,11.86,49.82,11.38,53.62,0,4.43-4.58,7.12-10.28,7.12-6.8,0-14.07-5.54-21.51-16.77s-11.23-24.2-11.23-39.07c0-25.94,12-49.35,33.22-66.11s54.25-27,93-27C728.37,70.36,763,96.93,763,146.28ZM723.47,196.9c7-13.76,10.44-29.11,10.44-46.19,0-19.77-5.54-35.74-16.77-47.92s-27.36-19.3-48.39-21.36q-22.07,85.65-26.58,105.34c-3.16,13.29-4.74,23.41-4.74,30.53,0,14.39,8.86,22.3,24.52,22.3C686.46,239.6,709.55,224.57,723.47,196.9Z"/><path class="cls-1" d="M763.88,200.06c1.27-5.06,3.32-12.5,6.33-22.3s5.37-18.19,7.12-25.15l.79-3.48c2-8.07,5.53-10.76,16.13-10.76,5.53,0,8.38,1.59,8.38,4.91,0,2.37-3,13.13-9,32.11-6.17,19-9.18,30.84-9.18,35.58q0,9.5,7.12,13.29c-.47,5.22-3.48,7.75-9,7.75-12,0-20.57-7.12-20.57-18.67A58.32,58.32,0,0,1,763.88,200.06Zm32.43-71.65c-7.44,0-11.55-3.32-11.55-8.86,0-4.9,1.9-9.17,5.85-13a19.49,19.49,0,0,1,14.08-5.69q9,0,9,7.12c0,2-.94,5.37-2.84,10.28a70,70,0,0,0-3.33,8.7A61.2,61.2,0,0,1,796.31,128.41Z"/><path class="cls-1" d="M865.71,219c-4.75,22.14-7.91,37.8-9.49,46.82s-2.38,16-2.22,20.87c-2.53,1.27-6,1.9-10.6,1.9-7.75,0-12.81-3.79-12.81-11.54,0-3,.48-5.54,1.9-12.34l2.37-10q1.18-5,3.8-15.65c1.74-7.12,3.48-14.08,5.06-20.88-13.92-1.58-25.15-4.75-33.85-9.49-8.7-4.59-13-9.81-13-15.5,0-6.49,3.32-10.92,10.13-13.45,12.18,13.61,25.3,22.62,39.38,27.21l11.86-55.36c2.37-10.12,7.44-13.13,16.29-13.13,4.59,0,6.8,1.74,6.8,5.06,0,3.17-4.11,13.76-9.17,26.89-2.53,6.64-4.43,11.86-5.54,15.82l1,.32c12-34,24.36-48.88,42.55-48.88,12.81,0,21,8.38,21,23.57C931.19,190.41,910.31,217.3,865.71,219Zm17.08-50.46q-9.74,16.62-15.19,41.76c13.13-.16,23.1-4.43,30.06-13.13,6.8-8.7,10.28-19.45,10.28-32.42,0-8.38-2.38-12.66-7.12-12.66C895.28,152.13,889.27,157.67,882.79,168.58Z"/><path class="cls-1" d="M651.44,311.61a7.9,7.9,0,0,1-.63,3L650,317.3c-3.8,11.23-10.6,21-20.57,29.58-10,8.7-21.19,13-33.53,13-10,0-16-4.43-16-13.29a45.14,45.14,0,0,1,1.74-11.07l12.34-46c-1.74-.15-4.59-.15-8.23-.15a10.87,10.87,0,0,1-.47-3.17c0-4.11,2.21-6.16,6.48-6.16h4.75l2.84-10.44c2.53-8.7,5.86-11.39,15.5-11.39,4.91,0,7.28,1.58,7.28,4.9a22.55,22.55,0,0,1-.63,4l-3.64,13a85,85,0,0,0,13.29-1,18.31,18.31,0,0,1,.63,4.9c0,4.59-2.38,6.8-7.28,6.8-4.27,0-7.43,0-9.49-.16l-11.23,40.18c-1.42,5.22-2.05,8.85-2.05,10.91,0,3,1.74,4.59,5.06,4.59,6.48,0,13.44-3.17,20.88-9.34a53.81,53.81,0,0,0,16.13-22.45l2-5.7c2.54,0,4.12.32,4.91,1.11A2.17,2.17,0,0,1,651.44,311.61Z"/><path class="cls-1" d="M755.35,311.61a11.14,11.14,0,0,1-.63,3l-1,2.69c-3.32,9.49-9.65,17.4-19.14,23.57q-14.48,9.25-35.11,9.49A52.17,52.17,0,0,1,667.89,361c-20.88,0-33.54-10.6-33.54-27.52q0-19.23,14.24-35.12c9.33-10.44,19.93-17.4,31.48-21a20.19,20.19,0,0,1,5.06-1c2.69,0,4.9,1.9,4.9,3.79,0,1.11-1.27,2.38-3.95,4-7.44,4.58-13.92,11.23-19.46,20.24-5.69,9-8.54,17.72-8.54,26.26,0,12.49,5.85,18.66,15.34,18.66a18.31,18.31,0,0,0,9-2.37c-8.07-4.27-12.18-11.39-12.18-21.35,0-9.49,3.79-18.83,11.23-28,7.43-9,15.5-13.6,24-13.6,10.6,0,17.71,7,17.71,20.09a55.11,55.11,0,0,1-13.44,36.37c18.51-1.74,32.27-11.22,37.8-25.93l2.22-5.7c2.37,0,3.95.32,4.74,1.11A2.51,2.51,0,0,1,755.35,311.61Zm-67.06-7a38.57,38.57,0,0,0-3.95,17.08c0,8.07,2.53,13.6,7.75,16.45q9-12.1,9-30.37c0-7.43-1.58-11.23-4.9-11.23C693.51,296.58,691,299.27,688.29,304.65Z"/><path class="cls-1" d="M850.25,308.76c2.53,0,4.11.32,4.9,1.11a2.14,2.14,0,0,1,.63,1.74,6.32,6.32,0,0,1-.63,3l-.79,2.69C850.72,328.06,844.24,338,834.59,347s-19.46,13.6-29.58,13.6c-10,0-14.71-5.06-14.71-12.81a28.34,28.34,0,0,1,1.43-8.54c.79-3,2.68-8.23,5.37-16l-1-.47C787,347.35,774,359.53,757.4,359.53c-11.23,0-19.13-6.17-19.13-17.08a51,51,0,0,1,1.26-10.75c.79-3.64,2.53-9.49,5.06-17.72,2.53-8.07,4.75-15.82,6.65-23.09,2.37-9.33,6.16-11.55,15.65-11.55,5.54,0,8.39,1.74,8.39,5.22,0,1.43-.79,4.75-2.53,10.12L771.64,298q-10.92,32-10.91,39.85c0,4.91,2,7.44,6.32,7.44,10.6,0,23.25-16.45,32.74-51.72l1.11-4.12c2.37-8.22,5.06-10.28,15.66-10.28,6.32,0,8.22,3,7.43,7.28l-.31,1.74c-.16,1.11-2.69,9.49-7.28,25.46-4.75,16-7.12,25.63-7.12,28.79S810.86,347,814,347q7.59,0,18.5-10a62,62,0,0,0,15.66-22.61Z"/><path class="cls-1" d="M906.87,293.74c0,5.37-2.22,10.59-6.65,15.81s-8.54,7.75-12.17,7.75c-3.17,0-6.49-2.05-6.49-4.58,0-.8,1-3.17,2.69-7.28s2.69-7.59,2.69-10.44-1.27-4.43-3.8-4.43c-4.74,0-9.65,4.27-14.71,13-5.22,8.7-7.75,17.08-7.75,25.47,0,11.7,6.33,17.55,19.14,17.55,9.65,0,19.14-3.16,28.31-9.33s15.34-13.76,18.67-22.77l2.21-5.7c2.53,0,4.11.32,4.9,1.11a2.14,2.14,0,0,1,.64,1.74,6.33,6.33,0,0,1-.64,3l-.63,2.06c-3.95,11.7-11.7,21.83-22.93,30.53a61.76,61.76,0,0,1-38.75,13.12c-21.36,0-33.69-9-33.69-27.2,0-7.91,2.53-16.13,7.59-24.52a66.33,66.33,0,0,1,19.61-20.72c8.07-5.53,16-8.22,23.88-8.22C901,279.66,906.87,285,906.87,293.74Z"/><path class="cls-1" d="M1002.24,295.79c0,4.9-1.9,13-5.54,24.2s-5.53,18.35-5.53,21.67c0,3,1.58,4.59,4.58,4.59q7.13,0,17.56-9.49a57.42,57.42,0,0,0,15.19-22.3l2-5.7c2.53,0,4.11.32,4.9,1.11a2.52,2.52,0,0,1,.8,1.74,10.89,10.89,0,0,1-.64,3l-.95,2.69c-3.63,11.07-10.28,20.88-19.77,29.58-9.65,8.7-19.77,13-30.36,13-9.65,0-16.14-4.43-16.14-13.29,0-4.27,1.74-12.18,5.38-23.41s5.38-18.82,5.38-23.09c0-4.58-2.06-7-6.17-7-5.85,0-11.86,5.22-18.19,15.5-6.48,10.44-11.39,24-15,41l-.47,2.21L938,358a41.56,41.56,0,0,1-9.8,1.42c-7.75,0-11.55-3-11.55-9,0-3.16.63-5.85,3.16-15.18,1.27-4.59,2.85-10.29,4.59-16.77s4.11-16.61,7.28-30.37,6.64-29.1,10.28-46.34l1.58-7c1.42-7.59,4.9-10.6,15.5-10.6,6.48,0,8.7,2.22,8.7,6.65,0,3.79-1.74,10.91-5.54,23.56-2.05,6.49-4,12.81-6,19s-4.9,14.71-8.38,25.31-6.64,20.24-9.33,28.63l1,.31c12-34,25-48.87,44-48.87C994.65,278.71,1002.24,284.88,1002.24,295.79Z"/></g></g></svg>